<svg xmlns="http://www.w3.org/2000/svg" width="110" height="77" fill="none"><path fill="#5061FC" d="m75.451 38.185 23.547-6.727v30.593a5.51 5.51 0 0 1-4.16 5.328l-37.193 9.299c-1.75.43-3.578.43-5.328 0l-37.151-9.299a5.48 5.48 0 0 1-4.167-5.328V31.458l23.547 6.738c.742.22 1.512.33 2.286.326a8.36 8.36 0 0 0 7.132-4.039L55 16.162l11.05 18.321a8.33 8.33 0 0 0 7.115 4.022 7.9 7.9 0 0 0 2.286-.32" opacity=".6"/><path fill="#5061FC" d="m109.712 19.228-8.851-17.675a2.81 2.81 0 0 0-2.87-1.53L54.999 5.506l15.76 26.141a2.826 2.826 0 0 0 3.18 1.255l34.013-9.71a2.83 2.83 0 0 0 1.76-3.964M9.15 1.553.299 19.228a2.8 2.8 0 0 0 1.736 3.953l34.013 9.71a2.83 2.83 0 0 0 3.18-1.254l15.77-26.131L12.004.03A2.81 2.81 0 0 0 9.15 1.553"/><path stroke="#222" stroke-linecap="round" stroke-linejoin="round" stroke-width="1.5" d="M83.588 58.613v-1.35c0-.716-.272-1.325-.757-1.694s-1.142-.467-1.828-.272l-5.17 1.465c-.686.194-1.343.665-1.828 1.309s-.757 1.407-.757 2.123v1.35m5.169-8.214c1.428-.404 2.585-1.94 2.585-3.431s-1.157-2.372-2.585-1.967-2.585 1.941-2.585 3.432 1.157 2.37 2.585 1.966" opacity=".2"/><mask id="a" width="89" height="61" x="10" y="16" maskUnits="userSpaceOnUse" style="mask-type:alpha"><path fill="#5061FC" d="m75.451 38.185 23.547-6.727v30.593a5.51 5.51 0 0 1-4.16 5.328l-37.193 9.299c-1.75.43-3.578.43-5.328 0l-37.151-9.299a5.48 5.48 0 0 1-4.167-5.328V31.458l23.547 6.738c.742.22 1.512.33 2.286.326a8.36 8.36 0 0 0 7.132-4.039L55 16.162l11.05 18.321a8.33 8.33 0 0 0 7.115 4.022 7.9 7.9 0 0 0 2.286-.32" opacity=".6"/></mask><g mask="url(#a)"><path fill="#5061FC" d="M54.09 15.098h1.502V78.46l-.751.05-.752-.05z" opacity=".37"/></g></svg>