<svg xmlns="http://www.w3.org/2000/svg" width="58" height="58" fill="none"><path fill="#FC5050" d="M34.44 9.062a14.498 14.498 0 1 0 10.252 4.246A14.4 14.4 0 0 0 34.44 9.062m0-9.062C47.452 0 58 10.548 58 23.56c0 13.013-10.548 23.56-23.56 23.56-13.013 0-23.56-10.547-23.56-23.56S21.427 0 34.44 0"/><path fill="#FC5050" d="m.789 50.145 11.293-11.293a2.72 2.72 0 0 1 1.925-.793h1.847l4.077 4.078v1.846a2.72 2.72 0 0 1-.793 1.925L7.846 57.203a2.71 2.71 0 0 1-3.84 0L.8 53.995a2.73 2.73 0 0 1-.011-3.851Z" opacity=".6"/><path fill="#FC5050" d="M31.903 27.103v-4.497h2.403q1.37 0 2.042-.723.672-.75.672-1.81 0-.75-.31-1.292a2 2 0 0 0-.853-.878q-.543-.336-1.318-.336-.828 0-1.396.361a2.33 2.33 0 0 0-.879.905q-.31.57-.31 1.292H28q0-1.706.75-3.075.774-1.396 2.274-2.223T34.642 14q1.965 0 3.386.75 1.421.723 2.197 2.015.775 1.293.775 2.973v.31q0 1.654-.801 2.92-.776 1.24-2.274 1.964-1.5.698-3.645.75l1.784-1.422-.052 2.843z"/><path fill="#FC5050" d="M31.593 29.274v4.161h4.703v-4.16h-4.703Z" opacity=".6"/></svg>